<mxfile host="app.diagrams.net" modified="2022-11-02T13:34:35.932Z" agent="5.0 (Windows NT 10.0; Win64; x64) AppleWebKit/537.36 (KHTML, like Gecko) Chrome/106.0.0.0 Safari/537.36" etag="OVXsUxdYnxFS29xWPBQ0" version="20.5.1" type="github">
  <diagram id="NCFTBYUoAR-1HO-mCc68" name="페이지-1">
    <mxGraphModel dx="1038" dy="579" grid="1" gridSize="10" guides="1" tooltips="1" connect="1" arrows="1" fold="1" page="1" pageScale="1" pageWidth="827" pageHeight="1169" math="0" shadow="0">
      <root>
        <mxCell id="0" />
        <mxCell id="1" parent="0" />
        <mxCell id="w1mm8uR1iYH9yGFxBup_-1" value="이용자" style="shape=umlActor;verticalLabelPosition=bottom;verticalAlign=top;html=1;" vertex="1" parent="1">
          <mxGeometry x="20" y="250" width="30" height="60" as="geometry" />
        </mxCell>
        <mxCell id="w1mm8uR1iYH9yGFxBup_-4" value="게시판 서비스" style="shape=umlFrame;whiteSpace=wrap;html=1;width=90;height=30;" vertex="1" parent="1">
          <mxGeometry x="150" y="60" width="470" height="520" as="geometry" />
        </mxCell>
        <mxCell id="w1mm8uR1iYH9yGFxBup_-16" style="rounded=0;orthogonalLoop=1;jettySize=auto;html=1;exitX=0;exitY=0.5;exitDx=0;exitDy=0;endArrow=none;endFill=0;" edge="1" parent="1" source="w1mm8uR1iYH9yGFxBup_-5" target="w1mm8uR1iYH9yGFxBup_-1">
          <mxGeometry relative="1" as="geometry" />
        </mxCell>
        <mxCell id="w1mm8uR1iYH9yGFxBup_-5" value="회원가입" style="rounded=1;whiteSpace=wrap;html=1;arcSize=40;fontColor=#000000;fillColor=#ffffc0;strokeColor=#ff0000;" vertex="1" parent="1">
          <mxGeometry x="190" y="210" width="120" height="40" as="geometry" />
        </mxCell>
        <mxCell id="w1mm8uR1iYH9yGFxBup_-22" style="edgeStyle=none;rounded=0;orthogonalLoop=1;jettySize=auto;html=1;exitX=0;exitY=0.5;exitDx=0;exitDy=0;endArrow=none;endFill=0;" edge="1" parent="1" source="w1mm8uR1iYH9yGFxBup_-7" target="w1mm8uR1iYH9yGFxBup_-1">
          <mxGeometry relative="1" as="geometry" />
        </mxCell>
        <mxCell id="w1mm8uR1iYH9yGFxBup_-28" value="&amp;lt;&amp;lt;include&amp;gt;&amp;gt;" style="edgeStyle=none;rounded=0;orthogonalLoop=1;jettySize=auto;html=1;exitX=1;exitY=0;exitDx=0;exitDy=0;entryX=0.75;entryY=1;entryDx=0;entryDy=0;dashed=1;endArrow=classic;endFill=1;" edge="1" parent="1" source="w1mm8uR1iYH9yGFxBup_-7" target="w1mm8uR1iYH9yGFxBup_-9">
          <mxGeometry relative="1" as="geometry" />
        </mxCell>
        <mxCell id="w1mm8uR1iYH9yGFxBup_-40" style="edgeStyle=none;rounded=0;orthogonalLoop=1;jettySize=auto;html=1;exitX=1;exitY=0.25;exitDx=0;exitDy=0;entryX=0;entryY=0.75;entryDx=0;entryDy=0;endArrow=none;endFill=0;" edge="1" parent="1" source="w1mm8uR1iYH9yGFxBup_-7" target="w1mm8uR1iYH9yGFxBup_-37">
          <mxGeometry relative="1" as="geometry" />
        </mxCell>
        <mxCell id="w1mm8uR1iYH9yGFxBup_-7" value="게시판 보기" style="rounded=1;whiteSpace=wrap;html=1;arcSize=40;fontColor=#000000;fillColor=#ffffc0;strokeColor=#ff0000;" vertex="1" parent="1">
          <mxGeometry x="180" y="290" width="120" height="40" as="geometry" />
        </mxCell>
        <mxCell id="w1mm8uR1iYH9yGFxBup_-23" style="edgeStyle=none;rounded=0;orthogonalLoop=1;jettySize=auto;html=1;exitX=0;exitY=0.5;exitDx=0;exitDy=0;endArrow=none;endFill=0;" edge="1" parent="1" source="w1mm8uR1iYH9yGFxBup_-8" target="w1mm8uR1iYH9yGFxBup_-1">
          <mxGeometry relative="1" as="geometry" />
        </mxCell>
        <mxCell id="w1mm8uR1iYH9yGFxBup_-29" value="&amp;lt;&amp;lt;include&amp;gt;&amp;gt;" style="edgeStyle=none;rounded=0;orthogonalLoop=1;jettySize=auto;html=1;exitX=1;exitY=0;exitDx=0;exitDy=0;entryX=0.833;entryY=1.005;entryDx=0;entryDy=0;entryPerimeter=0;dashed=1;endArrow=classic;endFill=1;" edge="1" parent="1" source="w1mm8uR1iYH9yGFxBup_-8" target="w1mm8uR1iYH9yGFxBup_-9">
          <mxGeometry relative="1" as="geometry" />
        </mxCell>
        <mxCell id="w1mm8uR1iYH9yGFxBup_-41" style="edgeStyle=none;rounded=0;orthogonalLoop=1;jettySize=auto;html=1;exitX=1;exitY=0.25;exitDx=0;exitDy=0;entryX=0;entryY=1;entryDx=0;entryDy=0;endArrow=none;endFill=0;" edge="1" parent="1" source="w1mm8uR1iYH9yGFxBup_-8" target="w1mm8uR1iYH9yGFxBup_-37">
          <mxGeometry relative="1" as="geometry">
            <Array as="points">
              <mxPoint x="540" y="330" />
            </Array>
          </mxGeometry>
        </mxCell>
        <mxCell id="w1mm8uR1iYH9yGFxBup_-8" value="게시글 보기" style="rounded=1;whiteSpace=wrap;html=1;arcSize=40;fontColor=#000000;fillColor=#ffffc0;strokeColor=#ff0000;" vertex="1" parent="1">
          <mxGeometry x="180" y="400" width="120" height="40" as="geometry" />
        </mxCell>
        <mxCell id="w1mm8uR1iYH9yGFxBup_-19" style="edgeStyle=none;rounded=0;orthogonalLoop=1;jettySize=auto;html=1;exitX=0;exitY=0.5;exitDx=0;exitDy=0;entryX=1;entryY=0.3333333333333333;entryDx=0;entryDy=0;entryPerimeter=0;endArrow=none;endFill=0;" edge="1" parent="1" source="w1mm8uR1iYH9yGFxBup_-9" target="w1mm8uR1iYH9yGFxBup_-1">
          <mxGeometry relative="1" as="geometry" />
        </mxCell>
        <mxCell id="w1mm8uR1iYH9yGFxBup_-24" value="&amp;lt;&amp;lt;include&amp;gt;&amp;gt;" style="edgeStyle=none;rounded=0;orthogonalLoop=1;jettySize=auto;html=1;exitX=1;exitY=0.5;exitDx=0;exitDy=0;entryX=0;entryY=0.5;entryDx=0;entryDy=0;endArrow=classic;endFill=1;dashed=1;" edge="1" parent="1" source="w1mm8uR1iYH9yGFxBup_-9" target="w1mm8uR1iYH9yGFxBup_-10">
          <mxGeometry relative="1" as="geometry" />
        </mxCell>
        <mxCell id="w1mm8uR1iYH9yGFxBup_-9" value="회원 로그인" style="rounded=1;whiteSpace=wrap;html=1;arcSize=40;fontColor=#000000;fillColor=#ffffc0;strokeColor=#ff0000;" vertex="1" parent="1">
          <mxGeometry x="250" y="110" width="120" height="40" as="geometry" />
        </mxCell>
        <mxCell id="w1mm8uR1iYH9yGFxBup_-39" style="edgeStyle=none;rounded=0;orthogonalLoop=1;jettySize=auto;html=1;exitX=1;exitY=0.5;exitDx=0;exitDy=0;entryX=0;entryY=0.5;entryDx=0;entryDy=0;endArrow=none;endFill=0;" edge="1" parent="1" source="w1mm8uR1iYH9yGFxBup_-10" target="w1mm8uR1iYH9yGFxBup_-37">
          <mxGeometry relative="1" as="geometry" />
        </mxCell>
        <mxCell id="w1mm8uR1iYH9yGFxBup_-10" value="인증" style="rounded=1;whiteSpace=wrap;html=1;arcSize=40;fontColor=#000000;fillColor=#ffffc0;strokeColor=#ff0000;" vertex="1" parent="1">
          <mxGeometry x="474" y="110" width="120" height="40" as="geometry" />
        </mxCell>
        <mxCell id="w1mm8uR1iYH9yGFxBup_-26" value="&amp;lt;&amp;lt;extend&amp;gt;&amp;gt;" style="edgeStyle=none;rounded=0;orthogonalLoop=1;jettySize=auto;html=1;exitX=0;exitY=0.5;exitDx=0;exitDy=0;entryX=1;entryY=0.5;entryDx=0;entryDy=0;dashed=1;endArrow=classic;endFill=1;" edge="1" parent="1" source="w1mm8uR1iYH9yGFxBup_-11" target="w1mm8uR1iYH9yGFxBup_-9">
          <mxGeometry relative="1" as="geometry" />
        </mxCell>
        <mxCell id="w1mm8uR1iYH9yGFxBup_-11" value="로그인 실패" style="rounded=1;whiteSpace=wrap;html=1;arcSize=40;fontColor=#000000;fillColor=#ffffc0;strokeColor=#ff0000;" vertex="1" parent="1">
          <mxGeometry x="474" y="190" width="120" height="40" as="geometry" />
        </mxCell>
        <mxCell id="w1mm8uR1iYH9yGFxBup_-31" value="&amp;lt;&amp;lt;extend&amp;gt;&amp;gt;" style="edgeStyle=none;rounded=0;orthogonalLoop=1;jettySize=auto;html=1;exitX=0;exitY=0.5;exitDx=0;exitDy=0;entryX=1;entryY=0.5;entryDx=0;entryDy=0;dashed=1;endArrow=classic;endFill=1;" edge="1" parent="1" source="w1mm8uR1iYH9yGFxBup_-12" target="w1mm8uR1iYH9yGFxBup_-7">
          <mxGeometry relative="1" as="geometry" />
        </mxCell>
        <mxCell id="w1mm8uR1iYH9yGFxBup_-12" value="게시판 정렬" style="rounded=1;whiteSpace=wrap;html=1;arcSize=40;fontColor=#000000;fillColor=#ffffc0;strokeColor=#ff0000;" vertex="1" parent="1">
          <mxGeometry x="420" y="280" width="120" height="40" as="geometry" />
        </mxCell>
        <mxCell id="w1mm8uR1iYH9yGFxBup_-34" value="&amp;lt;&amp;lt;extend&amp;gt;&amp;gt;" style="edgeStyle=none;rounded=0;orthogonalLoop=1;jettySize=auto;html=1;exitX=0;exitY=0.5;exitDx=0;exitDy=0;entryX=1;entryY=0.75;entryDx=0;entryDy=0;dashed=1;endArrow=classic;endFill=1;" edge="1" parent="1" source="w1mm8uR1iYH9yGFxBup_-13" target="w1mm8uR1iYH9yGFxBup_-7">
          <mxGeometry relative="1" as="geometry" />
        </mxCell>
        <mxCell id="w1mm8uR1iYH9yGFxBup_-13" value="게시판 검색" style="rounded=1;whiteSpace=wrap;html=1;arcSize=40;fontColor=#000000;fillColor=#ffffc0;strokeColor=#ff0000;" vertex="1" parent="1">
          <mxGeometry x="420" y="350" width="120" height="40" as="geometry" />
        </mxCell>
        <mxCell id="w1mm8uR1iYH9yGFxBup_-35" value="&amp;lt;&amp;lt;extend&amp;gt;&amp;gt;" style="edgeStyle=none;rounded=0;orthogonalLoop=1;jettySize=auto;html=1;exitX=0;exitY=0.5;exitDx=0;exitDy=0;entryX=1;entryY=0.5;entryDx=0;entryDy=0;dashed=1;endArrow=classic;endFill=1;" edge="1" parent="1" source="w1mm8uR1iYH9yGFxBup_-14" target="w1mm8uR1iYH9yGFxBup_-8">
          <mxGeometry relative="1" as="geometry" />
        </mxCell>
        <mxCell id="w1mm8uR1iYH9yGFxBup_-43" style="edgeStyle=none;rounded=0;orthogonalLoop=1;jettySize=auto;html=1;exitX=1;exitY=0;exitDx=0;exitDy=0;entryX=0;entryY=1;entryDx=0;entryDy=0;endArrow=none;endFill=0;" edge="1" parent="1" source="w1mm8uR1iYH9yGFxBup_-14" target="w1mm8uR1iYH9yGFxBup_-37">
          <mxGeometry relative="1" as="geometry" />
        </mxCell>
        <mxCell id="w1mm8uR1iYH9yGFxBup_-14" value="게시글 쓰기, 수정, 삭제" style="rounded=1;whiteSpace=wrap;html=1;arcSize=40;fontColor=#000000;fillColor=#ffffc0;strokeColor=#ff0000;" vertex="1" parent="1">
          <mxGeometry x="412" y="430" width="136" height="40" as="geometry" />
        </mxCell>
        <mxCell id="w1mm8uR1iYH9yGFxBup_-36" value="&amp;lt;&amp;lt;extend&amp;gt;&amp;gt;" style="edgeStyle=none;rounded=0;orthogonalLoop=1;jettySize=auto;html=1;exitX=0;exitY=0.5;exitDx=0;exitDy=0;dashed=1;endArrow=classic;endFill=1;" edge="1" parent="1" source="w1mm8uR1iYH9yGFxBup_-15" target="w1mm8uR1iYH9yGFxBup_-8">
          <mxGeometry relative="1" as="geometry" />
        </mxCell>
        <mxCell id="w1mm8uR1iYH9yGFxBup_-42" style="edgeStyle=none;rounded=0;orthogonalLoop=1;jettySize=auto;html=1;exitX=1;exitY=0.5;exitDx=0;exitDy=0;entryX=0.25;entryY=1;entryDx=0;entryDy=0;endArrow=none;endFill=0;" edge="1" parent="1" source="w1mm8uR1iYH9yGFxBup_-15" target="w1mm8uR1iYH9yGFxBup_-37">
          <mxGeometry relative="1" as="geometry" />
        </mxCell>
        <mxCell id="w1mm8uR1iYH9yGFxBup_-15" value="댓글 보기, 쓰기, 수정, 삭제" style="rounded=1;whiteSpace=wrap;html=1;arcSize=40;fontColor=#000000;fillColor=#ffffc0;strokeColor=#ff0000;" vertex="1" parent="1">
          <mxGeometry x="412" y="500" width="120" height="40" as="geometry" />
        </mxCell>
        <mxCell id="w1mm8uR1iYH9yGFxBup_-37" value="DB" style="html=1;dropTarget=0;" vertex="1" parent="1">
          <mxGeometry x="700" y="130" width="80" height="80" as="geometry" />
        </mxCell>
      </root>
    </mxGraphModel>
  </diagram>
</mxfile>
